<?xml version="1.0" standalone="no"?>
<!DOCTYPE svg PUBLIC "-//W3C//DTD SVG 20010904//EN"
 "http://www.w3.org/TR/2001/REC-SVG-20010904/DTD/svg10.dtd">
<svg version="1.0" xmlns="http://www.w3.org/2000/svg"
 width="307.000000pt" height="246.000000pt" viewBox="0 0 307.000000 246.000000"
 preserveAspectRatio="xMidYMid meet">

<g transform="translate(0.000000,246.000000) scale(0.100000,-0.100000)"
fill="#000000" stroke="none">
<path d="M1649 2108 c-1 -7 0 -17 1 -23 1 -5 3 -15 3 -22 0 -7 8 -6 24 4 13 9
23 23 21 32 -4 20 -48 28 -49 9z"/>
<path d="M1397 2074 c-13 -13 -7 -42 10 -48 21 -8 36 6 31 30 -3 19 -29 30
-41 18z"/>
<path d="M1420 1993 c-8 -7 -35 -30 -59 -51 -58 -49 -91 -119 -91 -194 0 -32
2 -58 4 -58 2 0 29 11 60 25 124 55 278 55 402 0 31 -14 58 -25 60 -25 9 0 3
110 -8 141 -17 51 -58 104 -105 136 -24 15 -43 31 -43 34 0 13 -205 5 -220 -8z
m60 -143 c0 -25 -4 -30 -25 -30 -21 0 -25 5 -25 30 0 25 4 30 25 30 21 0 25
-5 25 -30z m165 0 c0 -20 -6 -26 -27 -28 -25 -3 -28 0 -28 28 0 28 3 31 28 28
21 -2 27 -8 27 -28z"/>
<path d="M1466 1709 c-33 -5 -87 -22 -121 -37 -63 -30 -135 -86 -135 -105 0
-6 17 -28 37 -49 34 -35 35 -39 21 -55 -9 -10 -26 -38 -39 -63 -21 -39 -24
-59 -24 -145 0 -101 7 -126 55 -202 13 -21 12 -25 -12 -50 -21 -21 -30 -24
-41 -15 -23 20 -66 106 -82 167 -17 66 -21 73 -36 58 -32 -32 45 -208 125
-286 63 -61 169 -113 259 -127 70 -11 87 -8 87 14 0 7 -28 16 -76 23 -79 11
-186 57 -219 93 -18 20 -18 21 5 45 13 14 27 25 32 25 4 0 27 -14 50 -30 22
-17 47 -30 55 -30 28 0 11 29 -35 59 -48 30 -96 89 -120 144 -40 92 -17 225
50 302 38 43 46 81 15 70 -7 -3 -26 8 -41 24 l-29 30 62 40 c127 81 280 89
419 19 86 -43 92 -52 57 -88 -26 -27 -30 -28 -45 -15 -20 18 -50 20 -50 3 0
-7 16 -24 34 -38 19 -14 48 -45 65 -70 83 -123 62 -283 -52 -392 -54 -52 -56
-81 -3 -49 l33 21 29 -31 c32 -33 36 -27 -48 -80 -49 -31 -56 -43 -38 -54 11
-7 129 65 150 90 9 11 3 23 -29 58 l-40 43 25 37 c38 56 55 115 56 188 1 77
-14 128 -53 187 -16 24 -29 46 -29 50 0 3 17 23 37 44 36 37 36 38 18 58 -29
32 -108 79 -167 99 -68 24 -138 30 -212 20z"/>
<path d="M1466 1582 c-11 -18 19 -27 84 -27 51 0 65 3 65 15 0 12 -16 16 -72
18 -39 2 -74 -1 -77 -6z"/>
<path d="M1380 1545 c0 -8 7 -15 15 -15 8 0 15 7 15 15 0 8 -7 15 -15 15 -8 0
-15 -7 -15 -15z"/>
<path d="M1166 1523 c-12 -12 -6 -33 9 -33 8 0 15 6 15 14 0 17 -14 28 -24 19z"/>
<path d="M1895 1508 c-3 -8 8 -43 24 -77 55 -117 51 -256 -11 -373 -28 -52
-30 -78 -8 -78 17 0 80 146 90 210 12 81 -1 173 -37 252 -29 66 -50 89 -58 66z"/>
<path d="M1117 1443 c-2 -5 -12 -32 -22 -61 -17 -53 -15 -87 7 -80 12 4 49
128 42 140 -6 10 -22 10 -27 1z"/>
<path d="M1384 1391 c-9 -9 -3 -148 7 -186 7 -27 28 -56 62 -88 79 -74 77 -74
145 -17 77 64 94 105 90 215 l-3 79 -148 1 c-82 0 -151 -2 -153 -4z m232 -21
l54 0 0 -65 c0 -36 -7 -82 -15 -101 -14 -33 -100 -124 -117 -124 -5 0 -8 68
-8 151 0 134 2 150 16 145 9 -3 40 -6 70 -6z"/>
<path d="M1610 959 c-14 -4 -42 -7 -62 -8 -41 -1 -55 -13 -35 -30 10 -7 31 -8
73 -1 32 6 60 10 62 10 6 0 1 29 -5 33 -5 2 -19 1 -33 -4z"/>
<path d="M1617 834 c-9 -10 2 -24 19 -24 8 0 14 7 14 15 0 15 -21 21 -33 9z"/>
<path d="M1260 555 c0 -77 4 -125 10 -125 6 0 10 48 10 125 0 77 -4 125 -10
125 -6 0 -10 -48 -10 -125z"/>
<path d="M840 652 c-89 -44 -73 -179 24 -198 61 -11 126 44 126 106 0 37 -30
81 -65 96 -43 18 -43 18 -85 -4z m80 -42 c26 -14 34 -57 15 -86 -31 -48 -115
-21 -115 38 0 43 58 70 100 48z"/>
<path d="M1440 657 c-19 -9 -26 -22 -28 -50 -3 -36 -1 -38 42 -58 54 -23 63
-35 39 -47 -19 -10 -44 -5 -54 9 -3 5 -13 3 -23 -4 -17 -13 -17 -14 -1 -30 37
-37 101 -30 128 15 18 27 -8 68 -53 85 -45 18 -54 43 -15 43 14 0 25 -5 25
-10 0 -7 6 -7 20 0 26 14 16 36 -22 49 -17 6 -31 11 -32 11 -1 0 -12 -6 -26
-13z"/>
<path d="M600 560 l0 -100 65 0 c58 0 66 2 82 26 13 21 14 32 6 54 -6 16 -8
40 -6 54 9 45 -20 66 -89 66 l-58 0 0 -100z m108 43 c-2 -12 -13 -18 -33 -18
-20 0 -31 6 -33 18 -3 14 4 17 33 17 29 0 36 -3 33 -17z m7 -83 c0 -10 -12
-16 -37 -18 -33 -3 -38 0 -38 18 0 18 5 21 38 18 25 -2 37 -8 37 -18z"/>
<path d="M1000 640 c0 -16 7 -20 30 -20 l30 0 0 -80 c0 -73 2 -80 20 -80 18 0
20 7 20 80 0 79 0 80 25 80 18 0 25 5 25 20 0 18 -7 20 -75 20 -68 0 -75 -2
-75 -20z"/>
<path d="M1580 560 c0 -93 1 -100 20 -100 19 0 20 7 20 100 0 93 -1 100 -20
100 -19 0 -20 -7 -20 -100z"/>
<path d="M1692 578 c-17 -46 -33 -91 -37 -100 -6 -14 -2 -18 19 -18 16 0 26 6
26 15 0 11 12 15 44 15 30 0 46 -5 50 -15 5 -15 46 -22 46 -7 0 4 -15 48 -33
97 -30 78 -37 90 -59 93 -24 3 -28 -3 -56 -80z m71 -18 c3 -13 0 -23 -9 -27
-21 -8 -27 2 -20 32 7 29 21 26 29 -5z"/>
<path d="M1870 560 c0 -93 1 -100 20 -100 14 0 20 7 20 24 0 13 7 29 15 36 16
13 29 4 56 -42 5 -10 21 -18 34 -18 24 0 34 14 17 24 -5 3 -21 23 -37 45 l-28
41 37 45 37 45 -28 0 c-20 0 -36 -10 -56 -35 -35 -44 -47 -44 -47 0 0 28 -4
35 -20 35 -19 0 -20 -7 -20 -100z"/>
<path d="M2135 643 c-4 -10 -17 -47 -30 -83 -13 -36 -26 -73 -30 -82 -6 -15
-2 -18 19 -18 16 0 26 6 26 15 0 11 12 15 44 15 30 0 46 -5 50 -15 5 -15 46
-22 46 -7 0 4 -15 48 -33 97 -29 78 -37 90 -59 93 -17 2 -28 -3 -33 -15z m48
-83 c6 -23 -7 -34 -28 -26 -12 4 -13 10 -3 30 12 28 23 27 31 -4z"/>
<path d="M2290 560 l0 -100 66 0 c59 0 68 3 95 29 32 32 38 71 17 116 -17 37
-57 55 -123 55 l-55 0 0 -100z m130 40 c42 -42 12 -100 -51 -100 l-39 0 0 60
0 60 35 0 c22 0 43 -8 55 -20z"/>
</g>
</svg>
